# xmcd
#
# Track frame offsets:
#	150
#	18739
#	36819
#	59611
#	80530
#	95166
#	112807
#	133602
#	156492
#	172730
#	190430
#
# Disc length: 2778 seconds
#
# Revision: 1
# Processed by: cddbd v1.5.2PL0 Copyright (c) Steve Scherf et al.
# Submitted via: audiograbber 1.83.01
#
DISCID=940ad80b
DTITLE=Doug Seegers - A Story I Got to Tell
DYEAR=2019
DGENRE=Country
TTITLE0=White Line
TTITLE1=Give It Away
TTITLE2=Demon Seed
TTITLE3=Six Feet Under
TTITLE4=Angel from a Broken Home
TTITLE5=Out on the Street
TTITLE6=My Little Falling Star
TTITLE7=Poor Side of Town
TTITLE8=Rockabilly Bug
TTITLE9=Can't Keep Running (Back to You)
TTITLE10=Life Is a Mystery
EXTD=
EXTT0=
EXTT1=
EXTT2=
EXTT3=
EXTT4=
EXTT5=
EXTT6=
EXTT7=
EXTT8=
EXTT9=
EXTT10=
PLAYORDER=
